<svg xmlns="http://www.w3.org/2000/svg" xmlns:xlink="http://www.w3.org/1999/xlink" version="1.1" x="0px" y="0px" viewBox="0 0 50 62.5" enable-background="new 0 0 50 50" xml:space="preserve"><g><path fill-rule="evenodd" clip-rule="evenodd" d="M27.973,34.23l-7.412-16.154l-3.404,6.279H4.293   C10.094,33.804,17.931,41.576,24.997,50c7.07-8.415,14.918-16.199,20.709-25.646H33.326L27.973,34.23z M49.197,13.805   c0-13.723-15.288-18.655-24.2-8.14C16.088-4.85,0.803,0.082,0.803,13.805c0,2.727,0.662,5.333,1.904,7.753h12.788l5.27-9.72   l7.414,16.16l3.491-6.44h15.62C48.539,19.113,49.197,16.557,49.197,13.805z"/></g><text x="0" y="65" fill="black" font-size="5px" font-weight="bold" font-family="'Helvetica Neue', Helvetica, Arial-Unicode, Arial, Sans-serif">Created by Georgiana Ionescu</text><text x="0" y="70" fill="#ff0000" font-size="5px" font-weight="bold" font-family="'Helvetica Neue', Helvetica, Arial-Unicode, Arial, Sans-serif">from the Noun Project</text></svg>